# xmcd CD database file
#
# Track frame offsets:
#	150
#	16056
#	27150
#	44166
#	56268
#	76535
#	87324
#	104765
#	118802
#	133184
#	167731
#	180713
#	194950
#
# Disc length: 2797 seconds
#
# Revision: 0
# Processed by: cddbd v1.5.2PL0 Copyright (c) Steve Scherf et al.
# Submitted via: CDex 1.51
#
DISCID=b20aeb0d
DTITLE=Lustigen Schilehrer - Tirol
DYEAR=1997
DGENRE=Schlager
TTITLE0=Wie Die Zeit Vergeht
TTITLE1=Stolz Auf Mein Zuhaus
TTITLE2=Einsame Spuren
TTITLE3=Wo Adler Kreisen
TTITLE4=Wieder Hier
TTITLE5=Stubai Reggae
TTITLE6=Anton Aus Tirol
TTITLE7=Die Bam Schlag´n Aus
TTITLE8=Wenn Den Bergkristall Die Sonn´ Berührt
TTITLE9=Klostertaler Hit Medley
TTITLE10=Rock Mi
TTITLE11=Boarisch Tanz Ma Überall
TTITLE12=Könige Der Nacht
EXTD=YEAR: 1997
EXTT0=
EXTT1=
EXTT2=
EXTT3=
EXTT4=
EXTT5=
EXTT6=
EXTT7=
EXTT8=
EXTT9=
EXTT10=
EXTT11=
EXTT12=
PLAYORDER=
